<svg width="20" height="20" viewBox="0 0 20 20" fill="none" xmlns="http://www.w3.org/2000/svg">
<path fill-rule="evenodd" clip-rule="evenodd" d="M18.5044 1.47145C19.1766 2.14366 19.1766 3.23353 18.5044 3.90575L15.9344 6.47568L18.5044 9.04562C19.1766 9.71783 19.1766 10.8077 18.5044 11.4799C17.8322 12.1521 16.7423 12.1521 16.0701 11.4799L12.2911 7.70095C11.9529 7.36278 11.7849 6.91891 11.787 6.47568C11.7849 6.03245 11.9529 5.58858 12.2911 5.25041L16.0701 1.47145C16.7423 0.799232 17.8322 0.799232 18.5044 1.47145ZM1.56981 1.52895C2.24202 0.856733 3.33189 0.856733 4.00411 1.52895L18.4878 16.0127C19.1601 16.6849 19.1601 17.7748 18.4878 18.447C17.8156 19.1192 16.7258 19.1192 16.0535 18.447L1.56981 3.96325C0.897592 3.29104 0.897592 2.20116 1.56981 1.52895ZM1.53702 8.44698C2.20923 7.77477 3.29911 7.77477 3.97132 8.44698L11.5292 16.0049C12.2015 16.6771 12.2015 17.767 11.5292 18.4392C10.857 19.1114 9.76716 19.1114 9.09495 18.4392L1.53702 10.8813C0.864805 10.2091 0.864806 9.11919 1.53702 8.44698ZM1.47145 15.2994C2.14366 14.6272 3.23353 14.6272 3.90575 15.2994L4.67081 16.0645C5.34303 16.7367 5.34303 17.8266 4.67081 18.4988C3.9986 19.171 2.90873 19.171 2.23651 18.4988L1.47145 17.7337C0.799232 17.0615 0.799232 15.9717 1.47145 15.2994Z" fill="white"/>
</svg>