<svg width="136" height="20" viewBox="0 0 136 20" fill="none" xmlns="http://www.w3.org/2000/svg">
<path d="M18.5043 3.90568C19.1765 3.23346 19.1765 2.14359 18.5043 1.47137C17.8321 0.799159 16.7422 0.799159 16.07 1.47137L12.291 5.25034C11.9529 5.58851 11.7848 6.03238 11.7869 6.47561C11.7848 6.91883 11.9529 7.36271 12.291 7.70088L16.07 11.4798C16.7422 12.1521 17.8321 12.1521 18.5043 11.4798C19.1765 10.8076 19.1765 9.71776 18.5043 9.04554L15.9344 6.47561L18.5043 3.90568Z" fill="white"/>
<path d="M4.00404 1.52887C3.33183 0.85666 2.24195 0.85666 1.56974 1.52887C0.897524 2.20109 0.897524 3.29096 1.56974 3.96318L16.0535 18.4469C16.7257 19.1191 17.8156 19.1191 18.4878 18.4469C19.16 17.7747 19.16 16.6848 18.4878 16.0126L4.00404 1.52887Z" fill="white"/>
<path d="M3.97125 8.44691C3.29904 7.77469 2.20916 7.77469 1.53695 8.44691C0.864737 9.11912 0.864737 10.209 1.53695 10.8812L9.09488 18.4391C9.76709 19.1114 10.857 19.1114 11.5292 18.4391C12.2014 17.7669 12.2014 16.6771 11.5292 16.0048L3.97125 8.44691Z" fill="white"/>
<path d="M3.90568 15.2994C3.23347 14.6272 2.14359 14.6272 1.47138 15.2994C0.799163 15.9716 0.799163 17.0615 1.47138 17.7337L2.23644 18.4987C2.90866 19.1709 3.99853 19.1709 4.67074 18.4987C5.34296 17.8265 5.34296 16.7366 4.67075 16.0644L3.90568 15.2994Z" fill="white"/>
<path d="M25.944 4.696C26.184 4.936 26.488 5.056 26.856 5.056C27.208 5.056 27.512 4.936 27.768 4.696C28.04 4.44 28.176 4.128 28.176 3.76C28.176 3.408 28.04 3.112 27.768 2.872C27.512 2.616 27.208 2.488 26.856 2.488C26.488 2.488 26.176 2.616 25.92 2.872C25.68 3.112 25.568 3.408 25.584 3.76C25.584 4.128 25.704 4.44 25.944 4.696Z" fill="white"/>
<path d="M25.92 7.36V19H27.84V7.36H25.92Z" fill="white"/>
<path d="M30.9188 2.32V19H32.8148V2.056L30.9188 2.32Z" fill="white"/>
<path fill-rule="evenodd" clip-rule="evenodd" d="M37.1649 13.48H45.6129C45.6129 11.736 45.2289 10.232 44.4609 8.968C43.7089 7.688 42.4289 7.048 40.6209 7.048C38.8929 7.048 37.5569 7.624 36.6129 8.776C35.6849 9.928 35.2129 11.384 35.1969 13.144C35.1969 14.952 35.6929 16.432 36.6849 17.584C37.6769 18.72 39.1409 19.288 41.0769 19.288C41.5569 19.288 42.1969 19.208 42.9969 19.048C43.7969 18.904 44.4449 18.664 44.9409 18.328L44.3409 16.936C43.8929 17.144 43.4209 17.336 42.9249 17.512C42.4449 17.672 41.8129 17.752 41.0289 17.752C39.7169 17.752 38.7569 17.352 38.1489 16.552C37.5409 15.736 37.2129 14.712 37.1649 13.48ZM42.8049 9.64C43.3009 10.296 43.6129 11.144 43.7409 12.184H37.2129C37.3249 11.144 37.6529 10.296 38.1969 9.64C38.7569 8.984 39.5409 8.656 40.5489 8.656C41.5569 8.656 42.3089 8.984 42.8049 9.64Z" fill="white"/>
<path d="M52.3646 19.216C52.7006 19.12 52.9566 19.032 53.1326 18.952L52.7006 17.488C52.5886 17.536 52.4286 17.592 52.2206 17.656C52.0126 17.704 51.8206 17.728 51.6446 17.728C51.0526 17.728 50.6286 17.544 50.3726 17.176C50.1166 16.792 49.9886 16.304 49.9886 15.712V8.992H52.7246L52.1006 7.552H49.9886V4.048L48.0686 4.6V7.552H46.3886L46.4126 8.992H48.0686V15.976C48.0686 17.08 48.3646 17.92 48.9566 18.496C49.5646 19.072 50.3646 19.36 51.3566 19.36C51.7086 19.36 52.0446 19.312 52.3646 19.216Z" fill="white"/>
<path d="M55.0093 4.696C55.2493 4.936 55.5533 5.056 55.9213 5.056C56.2733 5.056 56.5773 4.936 56.8333 4.696C57.1053 4.44 57.2413 4.128 57.2413 3.76C57.2413 3.408 57.1053 3.112 56.8333 2.872C56.5773 2.616 56.2733 2.488 55.9213 2.488C55.5533 2.488 55.2413 2.616 54.9853 2.872C54.7453 3.112 54.6333 3.408 54.6493 3.76C54.6493 4.128 54.7693 4.44 55.0093 4.696Z" fill="white"/>
<path d="M54.9853 7.36V19H56.9053V7.36H54.9853Z" fill="white"/>
<path d="M63.1761 9.04L67.0881 14.056L68.2881 13.888L71.3361 9.592V19H74.4801V2.68H72.5841L67.5681 10.216L62.0481 2.68H60.0801V19H63.1761V9.04Z" fill="white"/>
<path fill-rule="evenodd" clip-rule="evenodd" d="M78.4785 17.632C79.6465 18.736 81.2385 19.288 83.2545 19.288C83.7505 19.288 84.3825 19.192 85.1505 19C85.9345 18.808 86.5985 18.504 87.1425 18.088L86.2305 15.832C85.6705 16.088 85.1745 16.288 84.7425 16.432C84.3265 16.56 83.8545 16.624 83.3265 16.624C82.4145 16.624 81.6785 16.4 81.1185 15.952C80.5585 15.488 80.2065 14.872 80.0625 14.104H87.9105V13.144C87.9105 11.496 87.4785 10.072 86.6145 8.872C85.7665 7.656 84.4305 7.048 82.6065 7.048C80.7985 7.048 79.3665 7.608 78.3105 8.728C77.2705 9.848 76.7505 11.336 76.7505 13.192C76.7505 15.048 77.3265 16.528 78.4785 17.632ZM84.0945 10.288C84.5105 10.656 84.7985 11.232 84.9585 12.016H80.0865C80.2145 11.264 80.4945 10.696 80.9265 10.312C81.3585 9.912 81.8945 9.712 82.5345 9.712C83.1585 9.712 83.6785 9.904 84.0945 10.288Z" fill="white"/>
<path d="M96.5966 9.856L95.9726 7.36C95.3486 7.36 94.6926 7.544 94.0046 7.912C93.3166 8.264 92.7326 8.648 92.2526 9.064L91.2206 7.36H89.5886V19H92.7086V11.656C93.3806 11.064 94.0606 10.616 94.7486 10.312C95.4526 10.008 96.0686 9.856 96.5966 9.856Z" fill="white"/>
<path d="M100.734 11.608V2.056L97.6382 2.32V19H100.734V15.184L101.982 14.08L104.91 19H108.486L104.214 12.088L107.478 9.232L105.726 7.024L100.734 11.608Z" fill="white"/>
<path fill-rule="evenodd" clip-rule="evenodd" d="M110.654 17.632C111.822 18.736 113.414 19.288 115.43 19.288C115.926 19.288 116.558 19.192 117.326 19C118.11 18.808 118.774 18.504 119.318 18.088L118.406 15.832C117.846 16.088 117.35 16.288 116.918 16.432C116.502 16.56 116.03 16.624 115.502 16.624C114.59 16.624 113.854 16.4 113.294 15.952C112.734 15.488 112.382 14.872 112.238 14.104H120.086V13.144C120.086 11.496 119.654 10.072 118.79 8.872C117.942 7.656 116.606 7.048 114.782 7.048C112.974 7.048 111.542 7.608 110.486 8.728C109.446 9.848 108.926 11.336 108.926 13.192C108.926 15.048 109.502 16.528 110.654 17.632ZM116.27 10.288C116.686 10.656 116.974 11.232 117.134 12.016H112.262C112.39 11.264 112.67 10.696 113.102 10.312C113.534 9.912 114.07 9.712 114.71 9.712C115.334 9.712 115.854 9.904 116.27 10.288Z" fill="white"/>
<path d="M124.813 16.48L130.429 9.136L130.261 7.36H120.949L121.549 9.928H126.205L120.661 17.344L121.069 19H130.669L130.429 16.48H124.813Z" fill="white"/>
<path d="M134.634 2.704C134.298 2.368 133.882 2.2 133.386 2.2C132.906 2.2 132.498 2.368 132.162 2.704C131.826 3.04 131.658 3.456 131.658 3.952C131.658 4.448 131.826 4.864 132.162 5.2C132.498 5.536 132.906 5.704 133.386 5.704C133.882 5.704 134.298 5.536 134.634 5.2C134.986 4.864 135.162 4.448 135.162 3.952C135.162 3.456 134.986 3.04 134.634 2.704Z" fill="white"/>
<path d="M134.946 19V7.36H131.826V19H134.946Z" fill="white"/>
</svg>
